# xmcd CD database file
#
# Track frame offsets:
#	150
#	26525
#	60487
#	88987
#	117825
#	148775
#	180712
#	213225
#	245175
#	276250
#
# Disc length: 4164 seconds
#
# Revision: 0
# Processed by: cddbd v1.4PL0 Copyright (c) Steve Scherf et al.
# Submitted via: CDex 1.50Beta5
#
DISCID=9610420a
DTITLE=Dave Eselman - When Dreams Come True
DYEAR=1993
DGENRE=Jazz
TTITLE0=Firm Roots
TTITLE1=We'll Never Say Goodbye
TTITLE2=Love You Madly
TTITLE3=Tumbao Nuevo
TTITLE4=Old Folks
TTITLE5=When Dreams Come True
TTITLE6=Invitation
TTITLE7=Bb Blues in F
TTITLE8=Mystique
TTITLE9=Original Rays
EXTD=YEAR: 1993
EXTT0=
EXTT1=
EXTT2=
EXTT3=
EXTT4=
EXTT5=
EXTT6=
EXTT7=
EXTT8=
EXTT9=
PLAYORDER=
